<svg width="148" height="105" viewBox="0 0 148 105" fill="none" xmlns="http://www.w3.org/2000/svg">
<g clip-path="url(#clip0_478_1289)">
<path d="M11.3853 2.78906H135.439V97.6312H11.3853V2.78906Z" stroke="black" stroke-width="6"/>
<path d="M25.2086 34.6358C22.8674 34.6358 20.7542 34.1709 18.8691 33.2411C16.9839 32.3112 15.3573 31.056 13.989 29.4753C12.6207 27.8636 11.5565 26.0659 10.7964 24.0823C10.0667 22.0676 9.70181 20.0066 9.70181 17.899C9.70181 15.6983 10.0971 13.6062 10.8876 11.6226C11.6782 9.60798 12.7728 7.82585 14.1714 6.27614C15.5701 4.69544 17.212 3.45568 19.0971 2.55685C21.0127 1.62702 23.0802 1.16211 25.2998 1.16211C27.6106 1.16211 29.7086 1.64252 31.5937 2.60334C33.5093 3.56415 35.1359 4.85041 36.4738 6.46211C37.8421 8.0738 38.891 9.8715 39.6208 11.8551C40.3809 13.8387 40.761 15.8689 40.761 17.9454C40.761 20.1461 40.3656 22.2536 39.5752 24.2682C38.815 26.2518 37.7356 28.034 36.337 29.6147C34.9383 31.1645 33.2812 32.3887 31.3657 33.2875C29.4805 34.1864 27.4282 34.6358 25.2086 34.6358ZM14.9012 17.899C14.9012 19.4487 15.1444 20.9518 15.6309 22.4086C16.1174 23.8654 16.8015 25.1671 17.6833 26.3139C18.5954 27.4297 19.69 28.313 20.9671 28.9639C22.2441 29.6147 23.6731 29.9402 25.2542 29.9402C26.8961 29.9402 28.3556 29.5992 29.6326 28.9174C30.9096 28.2355 31.9737 27.3211 32.8252 26.1744C33.7069 24.9966 34.3758 23.6948 34.8319 22.2691C35.288 20.8124 35.516 19.3557 35.516 17.899C35.516 16.3492 35.2728 14.8615 34.7863 13.4358C34.3302 11.979 33.6461 10.6928 32.7339 9.57702C31.8218 8.43023 30.7272 7.53141 29.4502 6.88053C28.2035 6.22965 26.8049 5.90421 25.2542 5.90421C23.6123 5.90421 22.1529 6.24515 20.8758 6.92702C19.5988 7.60889 18.5194 8.52322 17.6377 9.67C16.7559 10.8168 16.0718 12.1031 15.5853 13.5288C15.1292 14.9545 14.9012 16.4112 14.9012 17.899ZM87.2335 1.39457V34.4033H82.0797V19.8516H65.752V34.4033H60.6439V1.39457H65.752V15.2025H82.0797V1.39457H87.2335ZM122.587 34.6358C120.246 34.6358 118.133 34.1709 116.247 33.2411C114.363 32.3112 112.736 31.056 111.367 29.4753C109.999 27.8636 108.936 26.0659 108.175 24.0823C107.445 22.0676 107.08 20.0066 107.08 17.899C107.08 15.6983 107.476 13.6062 108.266 11.6226C109.057 9.60798 110.151 7.82585 111.55 6.27614C112.949 4.69544 114.591 3.45568 116.475 2.55685C118.391 1.62702 120.459 1.16211 122.678 1.16211C124.99 1.16211 127.088 1.64252 128.972 2.60334C130.888 3.56415 132.515 4.85041 133.852 6.46211C135.22 8.0738 136.269 9.8715 136.999 11.8551C137.76 13.8387 138.139 15.8689 138.139 17.9454C138.139 20.1461 137.744 22.2536 136.953 24.2682C136.194 26.2518 135.115 28.034 133.715 29.6147C132.317 31.1645 130.66 32.3887 128.744 33.2875C126.86 34.1864 124.807 34.6358 122.587 34.6358ZM112.28 17.899C112.28 19.4487 112.523 20.9518 113.009 22.4086C113.496 23.8654 114.18 25.1671 115.062 26.3139C115.974 27.4297 117.068 28.313 118.345 28.9639C119.622 29.6147 121.052 29.9402 122.633 29.9402C124.274 29.9402 125.734 29.5992 127.011 28.9174C128.288 28.2355 129.352 27.3211 130.203 26.1744C131.086 24.9966 131.754 23.6948 132.21 22.2691C132.666 20.8124 132.894 19.3557 132.894 17.899C132.894 16.3492 132.652 14.8615 132.165 13.4358C131.709 11.979 131.024 10.6928 130.112 9.57702C129.2 8.43023 128.106 7.53141 126.828 6.88053C125.582 6.22965 124.183 5.90421 122.633 5.90421C120.991 5.90421 119.531 6.24515 118.254 6.92702C116.977 7.60889 115.898 8.52322 115.016 9.67C114.135 10.8168 113.451 12.1031 112.964 13.5288C112.508 14.9545 112.28 16.4112 112.28 17.899ZM35.7537 38.5411H24.9901V66.9472H19.8364V38.5411H9.02734V33.9384H35.7537V38.5411ZM67.3241 62.3446V66.9472H45.113V33.9384H66.9137V38.5411H50.2211V47.9323H64.6789V52.256H50.2211V62.3446H67.3241ZM77.6561 66.9472V33.9384H100.415V38.4946H82.7642V47.7463H92.2507C95.8386 47.7463 98.5296 48.6141 100.324 50.3498C102.117 52.0545 103.015 54.3171 103.015 57.1375C103.015 59.0282 102.619 60.7174 101.829 62.2051C101.068 63.6618 99.9133 64.8241 98.3626 65.6919C96.8421 66.5288 94.9112 66.9472 92.57 66.9472H77.6561ZM82.7642 62.3911H91.8858C93.2846 62.3911 94.4095 62.1276 95.2608 61.6007C96.1426 61.0738 96.7664 60.4075 97.1312 59.6016C97.5262 58.7647 97.7241 57.8969 97.7241 56.9981C97.7241 56.0992 97.5563 55.2624 97.2224 54.4875C96.8877 53.7127 96.2793 53.0928 95.3977 52.6279C94.5463 52.132 93.3453 51.884 91.7946 51.884H82.7642V62.3911ZM135.036 62.3446V66.9472H112.825V33.9384H134.626V38.5411H117.933V47.9323H132.391V52.256H117.933V62.3446H135.036ZM35.64 66.4823V99.4911H30.4863V84.9393H14.1586V99.4911H9.0505V66.4823H14.1586V80.2902H30.4863V66.4823H35.64ZM53.2066 66.4823H58.0411L70.6289 99.4911H65.2471L61.8265 90.5182H49.3299L45.9549 99.4911H40.5276L53.2066 66.4823ZM60.8232 86.6595L55.6238 72.2007L50.2421 86.6595H60.8232ZM70.4376 105.814V94.8884H71.9883C72.8396 94.8884 73.5694 94.5472 74.1775 93.8656C74.816 93.1841 75.3481 92.0989 75.7738 90.6112C76.2299 89.1235 76.5795 87.1709 76.8228 84.7533C77.0964 82.3048 77.294 79.3139 77.4157 75.7805L77.6437 66.4823H98.4867V94.8884H102.591V105.814H98.0762V99.4911H74.9528V105.814H70.4376ZM78.4647 94.8884H93.3329V71.0849H82.3869L82.2501 76.4779C82.1589 80.0422 81.9765 83.0641 81.7028 85.5437C81.4292 87.9922 81.0339 89.9759 80.517 91.4946C80.0001 93.013 79.316 94.1446 78.4647 94.8884ZM122.406 99.7235C120.065 99.7235 117.952 99.2586 116.067 98.3288C114.181 97.3989 112.555 96.1437 111.187 94.563C109.818 92.9513 108.754 91.1536 107.994 89.17C107.264 87.1553 106.9 85.0943 106.9 82.9867C106.9 80.786 107.295 78.6939 108.085 76.7104C108.876 74.6957 109.971 72.9136 111.369 71.3639C112.768 69.7832 114.409 68.5434 116.295 67.6446C118.21 66.7147 120.278 66.2498 122.498 66.2498C124.808 66.2498 126.906 66.7303 128.791 67.6911C130.707 68.6518 132.333 69.9382 133.672 71.5498C135.04 73.1615 136.089 74.9592 136.818 76.9428C137.578 78.9264 137.959 80.9566 137.959 83.0332C137.959 85.2338 137.564 87.3413 136.773 89.356C136.013 91.3396 134.933 93.1218 133.535 94.7025C132.136 96.2525 130.479 97.4761 128.563 98.3753C126.678 99.2744 124.626 99.7235 122.406 99.7235ZM112.099 82.9867C112.099 84.5364 112.342 86.0396 112.829 87.4963C113.315 88.9531 113.999 90.2548 114.881 91.4016C115.793 92.5174 116.888 93.4007 118.165 94.0516C119.442 94.7025 120.871 95.0279 122.452 95.0279C124.094 95.0279 125.553 94.6866 126.83 94.0051C128.107 93.3235 129.172 92.4089 130.023 91.2621C130.905 90.0843 131.574 88.7825 132.03 87.3568C132.486 85.9001 132.714 84.4434 132.714 82.9867C132.714 81.4369 132.47 79.9492 131.984 78.5235C131.528 77.0667 130.844 75.7805 129.932 74.6647C129.02 73.518 127.925 72.6191 126.648 71.9682C125.401 71.3174 124.003 70.9919 122.452 70.9919C120.81 70.9919 119.351 71.3329 118.074 72.0147C116.797 72.6966 115.717 73.611 114.835 74.7577C113.953 75.9045 113.269 77.1908 112.783 78.6165C112.327 80.0422 112.099 81.4989 112.099 82.9867Z" fill="black"/>
</g>
<defs>
<clipPath id="clip0_478_1289">
<rect width="148" height="105" fill="white"/>
</clipPath>
</defs>
</svg>
