<svg width="48" height="48" viewBox="0 0 48 48" fill="none" xmlns="http://www.w3.org/2000/svg">
<circle cx="24" cy="24" r="23.5" stroke="black"/>
<path d="M37.1251 32.9531H33.1876C32.7188 32.9531 32.2501 32.6719 31.9688 32.2969L31.5938 31.6875C31.3594 31.4063 29.2032 28.9219 27.8907 28.125C27.3751 27.8438 27.1876 27.8906 27.1876 27.8906C27.1876 27.8906 27.1407 28.0313 27.1407 28.0781V30.5625C27.1407 31.875 26.0626 32.9062 24.7969 32.9062H23.8594C23.6251 32.9062 18.3751 32.8125 14.2032 26.5781C10.9219 21.7031 9.84382 18.5156 9.46882 16.6875C9.37507 16.2656 9.51569 15.8437 9.75007 15.5156C10.0313 15.1875 10.4063 15 10.8282 15H14.1563C14.7657 15 15.2813 15.375 15.4688 15.9844C15.8438 17.0625 16.7813 19.8281 17.9063 21.6094C19.5469 24.3281 20.2032 24.5625 20.3907 24.5625C20.5313 24.3281 20.4844 23.3906 20.4844 22.7813C20.4844 22.5 20.4844 22.2656 20.4844 21.9844C20.4844 21.7969 20.4844 21.5625 20.4844 21.3281C20.4844 20.1562 20.5313 18.5625 20.0626 17.8125L19.1251 16.4531C18.9376 16.1719 18.8907 15.7969 19.0782 15.4688C19.2188 15.1406 19.5469 14.9531 19.9219 14.9531H25.2657C26.0626 14.9531 26.6719 15.6094 26.6719 16.3594V23.1094C26.6719 23.1563 26.7188 23.2031 26.7188 23.2031C26.7188 23.2031 26.9063 23.2031 27.4219 22.7344C28.5001 21.6562 29.8594 19.6406 31.2188 16.875L31.6876 15.7969C31.9219 15.2813 32.4376 14.9531 33.0001 14.9531H36.4688C36.9376 14.9531 37.3594 15.1875 37.6407 15.5625C37.9219 15.9375 37.9688 16.4531 37.7813 16.875L37.4063 17.8594V17.9063C37.3594 18 36.0938 20.4844 34.7813 22.3125C33.7501 23.7188 33.3282 24.375 33.4219 24.6094C33.5157 24.75 34.1251 25.4531 34.7344 26.0156C35.8594 27.1875 37.2657 28.6875 37.7813 29.6719C38.0157 30.0938 38.2501 30.4688 38.3907 30.7969C38.6251 31.2188 38.6251 31.7344 38.3438 32.2031C38.0626 32.7188 37.6407 32.9531 37.1251 32.9531ZM27.2813 26.9531C27.6094 26.9531 27.9844 27.0938 28.4063 27.3281C29.9532 28.2188 32.2969 30.9844 32.3907 31.125L32.4376 31.1719L32.8126 31.7812C32.9063 31.9219 33.0469 32.0156 33.2344 32.0156H37.1251C37.3594 32.0156 37.5001 31.875 37.5469 31.7812C37.5938 31.7344 37.6876 31.5469 37.5469 31.3125C37.3594 30.9844 37.1719 30.6094 36.9376 30.1875C36.4688 29.3438 35.0626 27.8438 34.0313 26.7188C33.0001 25.5938 32.6251 25.2188 32.5313 24.9844C32.2501 24.2812 32.6719 23.7188 34.0313 21.8438C35.2501 20.1563 36.4219 17.8594 36.5626 17.5781L36.9376 16.5938C36.9844 16.4531 36.9844 16.2656 36.8907 16.1719C36.7969 16.0313 36.6563 15.9844 36.5157 15.9844H33.0469C32.8594 15.9844 32.6719 16.0781 32.6251 16.2656L32.1563 17.3906C31.1251 19.4063 29.6251 22.0781 28.1719 23.5312C27.5626 24.1406 27.0001 24.3281 26.5313 24.1875C25.9688 24 25.8282 23.3906 25.8282 23.3438C25.8282 23.2969 25.8282 23.2969 25.8282 23.25V16.4531C25.8282 16.1719 25.5938 15.9844 25.3594 15.9844H19.9219L20.8594 17.3438C21.4688 18.3281 21.4688 20.0625 21.4219 21.4219C21.4219 21.6563 21.4219 21.8438 21.4219 22.0312C21.4219 22.2656 21.4219 22.5469 21.4219 22.7813C21.4688 24.0938 21.4688 25.3125 20.6251 25.5C19.6876 25.6875 18.7032 24.7031 17.1094 22.125C16.0313 20.2969 15.0938 17.7188 14.6251 16.3125C14.5782 16.125 14.3907 15.9844 14.1563 15.9844H10.8751C10.7344 15.9844 10.5938 16.0313 10.5001 16.1719C10.4063 16.2656 10.4063 16.4063 10.4063 16.5469C10.7344 18.2813 11.8126 21.3281 15.0001 26.1094C18.8907 31.9219 23.8126 32.0156 23.8594 32.0156H24.7969C25.5938 32.0156 26.2032 31.3594 26.2032 30.6094V28.125C26.2032 28.0781 26.2032 27.4219 26.7188 27.0938C26.9063 27 27.0938 26.9531 27.2813 26.9531Z" fill="black"/>
</svg>