<svg width="48" height="48" viewBox="0 0 48 48" fill="none" xmlns="http://www.w3.org/2000/svg">
<circle cx="24" cy="24" r="23.5" stroke="black"/>
<path d="M31.8296 14H16.1703C13.3193 14 11 16.436 11 19.4302V28.5698C11 31.564 13.3193 34 16.1703 34H31.8296C34.6806 34 37 31.564 37 28.5698V19.4302C37 16.436 34.6806 14 31.8296 14ZM35.9388 28.5698C35.9388 30.9512 34.0954 32.8889 31.8296 32.8889H16.1703C13.9046 32.8889 12.0612 30.9512 12.0612 28.5698V19.4302C12.0612 17.0488 13.9046 15.1111 16.1703 15.1111H31.8296C34.0954 15.1111 35.9388 17.0488 35.9388 19.4302V28.5698Z" fill="black"/>
<path d="M28.7012 23.7994L21.3496 19.2909C21.1863 19.1908 20.9827 19.1891 20.8176 19.2882C20.6526 19.3872 20.5508 19.5711 20.5508 19.7702V28.7861C20.5508 28.9852 20.6526 29.1691 20.8173 29.2681C20.8992 29.3172 20.9904 29.3416 21.0814 29.3416C21.1741 29.3416 21.2666 29.3161 21.3496 29.2654L28.7012 24.758C28.8636 24.6585 28.9636 24.4759 28.9636 24.2787C28.9636 24.0814 28.8639 23.8989 28.7012 23.7994ZM21.612 27.8168V20.7395L27.3829 24.2787L21.612 27.8168Z" fill="black"/>
</svg>